<svg xmlns="http://www.w3.org/2000/svg" width="112.086" height="56.719" viewBox="0 0 112.086 56.719"><defs><style>.a{fill:#0058a3;}.b{fill:#ffdb00;}.c{fill:none;}</style></defs><g transform="translate(0 0)"><path class="a" d="M93.153,37.8H0V0H93.167V37.8Z" transform="translate(9.466 9.457)"/><path class="b" d="M13.6,33.027c0,9.137,18.759,16.727,44.768,16.727s44.754-7.59,44.754-16.727S84.363,16.3,58.368,16.3,13.6,23.89,13.6,33.027Z" transform="translate(-2.318 -4.668)"/><path class="a" d="M96.309,82.511a2.483,2.483,0,0,0-.2,1.187v5s2.684-3.482,3.3-4.309a5,5,0,0,0,1.041-1.881h8.759a9.533,9.533,0,0,0-1.816,1.787l-3.2,3.908s4.046,6.149,4.566,6.936a7.649,7.649,0,0,0,.988,1.187H99.661a4.6,4.6,0,0,0-.814-1.854c-.427-.64-2.737-4.149-2.737-4.149v4.815a2.483,2.483,0,0,0,.2,1.187h-8.4a2.483,2.483,0,0,0,.2-1.187V83.7a2.483,2.483,0,0,0-.2-1.187Zm31.1,0H111.2a2.483,2.483,0,0,1,.2,1.187V95.143a2.483,2.483,0,0,1-.2,1.187H127.4V92.5a2.489,2.489,0,0,1-1.188.2h-6.823V90.888h6.556V87.966h-6.556V86.139h6.823a2.648,2.648,0,0,1,1.188.187Zm22.457,12.632a3.339,3.339,0,0,0,.654,1.187h-8.785a2.561,2.561,0,0,0-.267-1.187s-.134-.32-.32-.787l-.08-.2H136l-.08.213s-.147.387-.28.787a2.686,2.686,0,0,0-.227,1.187h-6.929a3.5,3.5,0,0,0,.628-1.187l4.152-11.445a2.527,2.527,0,0,0,.24-1.187h11.709a2.025,2.025,0,0,0,.254,1.187c.347.867,4.1,10.658,4.393,11.432m-9.907-3.908-1.228-3.2a7.072,7.072,0,0,1-.267-.907,5.342,5.342,0,0,1-.24.907c-.04.133-.561,1.534-1.162,3.2ZM83.732,83.7a2.483,2.483,0,0,1,.2-1.187H74.8A2.483,2.483,0,0,1,75,83.7V95.143a2.483,2.483,0,0,1-.2,1.187h9.132a2.483,2.483,0,0,1-.2-1.187V83.7Zm63.326-.093a1.823,1.823,0,0,0,3.645.093V83.6a1.777,1.777,0,0,0-1.749-1.814h-.067a1.741,1.741,0,0,0-1.816,1.694.13.13,0,0,0-.013.12m3.271,0a1.456,1.456,0,0,1-2.911.08v-.093a1.4,1.4,0,0,1,1.348-1.454h.107a1.43,1.43,0,0,1,1.455,1.4V83.6m-.561,1.094h-.36l-.427-.774h-.467V84.7h-.32V82.511h.814a.7.7,0,0,1,.681.707.731.731,0,0,1-.387.64Zm-.814-1.094a.369.369,0,0,0,.4-.36.377.377,0,0,0-.36-.4h-.481v.774h.441" transform="translate(-55.347 -61.421)"/><path class="c" d="M41.186-14.181H-70.9V-70.9H41.186Z" transform="translate(70.9 70.9)"/></g></svg>